<mxfile host="app.diagrams.net" modified="2021-08-03T06:55:29.088Z" agent="5.0 (Macintosh; Intel Mac OS X 10_15_7) AppleWebKit/537.36 (KHTML, like Gecko) Chrome/91.0.4472.114 Safari/537.36" etag="y6DOhKdLmz-mQuqEdQuF" version="14.6.13" type="github">
  <diagram id="Sknh2KHDVTYEBVQNKLe9" name="Page-1">
    <mxGraphModel dx="2893" dy="1074" grid="1" gridSize="10" guides="1" tooltips="1" connect="1" arrows="1" fold="1" page="1" pageScale="1" pageWidth="827" pageHeight="1169" math="0" shadow="0">
      <root>
        <mxCell id="0" />
        <mxCell id="1" parent="0" />
        <mxCell id="B0hIs_xBHr-irciE7WSH-43" value="" style="rounded=0;whiteSpace=wrap;html=1;dashed=1;sketch=1;fontSize=14;fontColor=#000000;strokeWidth=1;fillColor=none;" vertex="1" parent="1">
          <mxGeometry x="370" y="360" width="320" height="900" as="geometry" />
        </mxCell>
        <mxCell id="B0hIs_xBHr-irciE7WSH-40" value="" style="rounded=0;whiteSpace=wrap;html=1;dashed=1;sketch=1;fontSize=14;fontColor=#000000;strokeWidth=1;fillColor=none;" vertex="1" parent="1">
          <mxGeometry x="10" y="525" width="300" height="825" as="geometry" />
        </mxCell>
        <mxCell id="B0hIs_xBHr-irciE7WSH-16" value="" style="shape=ext;double=1;rounded=0;whiteSpace=wrap;html=1;dashed=1;sketch=1;fontSize=14;fontColor=#000000;strokeWidth=2;fillColor=none;" vertex="1" parent="1">
          <mxGeometry x="115" y="640" width="145" height="230" as="geometry" />
        </mxCell>
        <mxCell id="B0hIs_xBHr-irciE7WSH-47" style="edgeStyle=orthogonalEdgeStyle;rounded=0;sketch=1;orthogonalLoop=1;jettySize=auto;html=1;dashed=1;fontSize=23;fontColor=#CC0000;strokeWidth=2;" edge="1" parent="1" source="B0hIs_xBHr-irciE7WSH-1">
          <mxGeometry relative="1" as="geometry">
            <mxPoint x="152.5" y="520" as="targetPoint" />
          </mxGeometry>
        </mxCell>
        <mxCell id="B0hIs_xBHr-irciE7WSH-1" value="KrakenWidget" style="rounded=1;whiteSpace=wrap;html=1;fontSize=18;fillColor=#B9E0A5;sketch=1;" vertex="1" parent="1">
          <mxGeometry x="70" y="380" width="165" height="110" as="geometry" />
        </mxCell>
        <mxCell id="B0hIs_xBHr-irciE7WSH-2" value="RenderViewPortBox" style="rounded=0;whiteSpace=wrap;html=1;fontSize=18;fillColor=#A9C4EB;sketch=1;" vertex="1" parent="1">
          <mxGeometry x="390" y="412.5" width="210" height="65" as="geometry" />
        </mxCell>
        <mxCell id="B0hIs_xBHr-irciE7WSH-3" value="rootRenderObject" style="text;html=1;strokeColor=none;fillColor=none;align=center;verticalAlign=middle;whiteSpace=wrap;rounded=0;fontSize=14;fontColor=#000000;sketch=1;" vertex="1" parent="1">
          <mxGeometry x="414" y="370" width="140" height="30" as="geometry" />
        </mxCell>
        <mxCell id="B0hIs_xBHr-irciE7WSH-7" value="ElementManager" style="shape=parallelogram;perimeter=parallelogramPerimeter;whiteSpace=wrap;html=1;fixedSize=1;fontSize=14;fontColor=#000000;fillColor=#9AC7BF;sketch=1;" vertex="1" parent="1">
          <mxGeometry x="52.5" y="550" width="200" height="60" as="geometry" />
        </mxCell>
        <mxCell id="B0hIs_xBHr-irciE7WSH-8" value="" style="endArrow=classic;html=1;fontSize=14;fontColor=#000000;sketch=1;strokeWidth=2;" edge="1" parent="1">
          <mxGeometry width="50" height="50" relative="1" as="geometry">
            <mxPoint x="70" y="610" as="sourcePoint" />
            <mxPoint x="70" y="1120" as="targetPoint" />
          </mxGeometry>
        </mxCell>
        <mxCell id="B0hIs_xBHr-irciE7WSH-9" value="DivElement" style="rounded=0;whiteSpace=wrap;html=1;fontSize=14;fontColor=#000000;fillColor=#9AC7BF;sketch=1;" vertex="1" parent="1">
          <mxGeometry x="125" y="660" width="110" height="40" as="geometry" />
        </mxCell>
        <mxCell id="B0hIs_xBHr-irciE7WSH-10" value="ParagraphElement" style="rounded=0;whiteSpace=wrap;html=1;fontSize=14;fontColor=#000000;fillColor=#9AC7BF;sketch=1;" vertex="1" parent="1">
          <mxGeometry x="125" y="710" width="125" height="40" as="geometry" />
        </mxCell>
        <mxCell id="B0hIs_xBHr-irciE7WSH-11" value="UListElement" style="rounded=0;whiteSpace=wrap;html=1;fontSize=14;fontColor=#000000;fillColor=#9AC7BF;sketch=1;" vertex="1" parent="1">
          <mxGeometry x="125" y="760" width="115" height="40" as="geometry" />
        </mxCell>
        <mxCell id="B0hIs_xBHr-irciE7WSH-12" value="……" style="rounded=0;whiteSpace=wrap;html=1;fontSize=14;fontColor=#000000;fillColor=#9AC7BF;sketch=1;" vertex="1" parent="1">
          <mxGeometry x="125" y="810" width="115" height="40" as="geometry" />
        </mxCell>
        <mxCell id="B0hIs_xBHr-irciE7WSH-17" value="ContainerElement" style="text;html=1;strokeColor=none;fillColor=none;align=center;verticalAlign=middle;whiteSpace=wrap;rounded=0;dashed=1;sketch=1;fontSize=14;fontColor=#660000;fontStyle=1" vertex="1" parent="1">
          <mxGeometry x="112.5" y="610" width="140" height="30" as="geometry" />
        </mxCell>
        <mxCell id="B0hIs_xBHr-irciE7WSH-19" value="" style="shape=curlyBracket;whiteSpace=wrap;html=1;rounded=1;dashed=1;sketch=1;fontSize=14;fontColor=#660000;strokeWidth=2;fillColor=none;size=0.5;" vertex="1" parent="1">
          <mxGeometry x="270" y="615" width="100" height="235" as="geometry" />
        </mxCell>
        <mxCell id="B0hIs_xBHr-irciE7WSH-20" value="display" style="text;html=1;strokeColor=none;fillColor=none;align=center;verticalAlign=middle;whiteSpace=wrap;rounded=0;dashed=1;sketch=1;fontSize=14;" vertex="1" parent="1">
          <mxGeometry x="270" y="700" width="40" height="20" as="geometry" />
        </mxCell>
        <mxCell id="B0hIs_xBHr-irciE7WSH-22" value="flex" style="text;html=1;strokeColor=none;fillColor=none;align=center;verticalAlign=middle;whiteSpace=wrap;rounded=0;dashed=1;sketch=1;fontSize=14;fontStyle=1" vertex="1" parent="1">
          <mxGeometry x="374" y="600" width="40" height="20" as="geometry" />
        </mxCell>
        <mxCell id="B0hIs_xBHr-irciE7WSH-23" value="RenderFelexLayout" style="rounded=0;whiteSpace=wrap;html=1;fontSize=18;fillColor=#A9C4EB;sketch=1;" vertex="1" parent="1">
          <mxGeometry x="420" y="577.5" width="210" height="65" as="geometry" />
        </mxCell>
        <mxCell id="B0hIs_xBHr-irciE7WSH-25" value="" style="endArrow=none;html=1;fontSize=14;fontColor=#000000;strokeWidth=2;dashed=1;" edge="1" parent="1">
          <mxGeometry width="50" height="50" relative="1" as="geometry">
            <mxPoint x="324" y="732" as="sourcePoint" />
            <mxPoint x="370" y="732" as="targetPoint" />
          </mxGeometry>
        </mxCell>
        <mxCell id="B0hIs_xBHr-irciE7WSH-26" value="block" style="text;html=1;strokeColor=none;fillColor=none;align=center;verticalAlign=middle;whiteSpace=wrap;rounded=0;dashed=1;sketch=1;fontSize=14;fontStyle=1" vertex="1" parent="1">
          <mxGeometry x="374" y="720" width="40" height="20" as="geometry" />
        </mxCell>
        <mxCell id="B0hIs_xBHr-irciE7WSH-27" value="RenderFlowLayout" style="rounded=0;whiteSpace=wrap;html=1;fontSize=18;fillColor=#A9C4EB;sketch=1;" vertex="1" parent="1">
          <mxGeometry x="420" y="697.5" width="210" height="65" as="geometry" />
        </mxCell>
        <mxCell id="B0hIs_xBHr-irciE7WSH-28" value="sliver" style="text;html=1;strokeColor=none;fillColor=none;align=center;verticalAlign=middle;whiteSpace=wrap;rounded=0;dashed=1;sketch=1;fontSize=14;fontStyle=1" vertex="1" parent="1">
          <mxGeometry x="374" y="840" width="40" height="20" as="geometry" />
        </mxCell>
        <mxCell id="B0hIs_xBHr-irciE7WSH-29" value="RenderRecycleLayout" style="rounded=0;whiteSpace=wrap;html=1;fontSize=18;fillColor=#A9C4EB;sketch=1;" vertex="1" parent="1">
          <mxGeometry x="420" y="810" width="210" height="65" as="geometry" />
        </mxCell>
        <mxCell id="B0hIs_xBHr-irciE7WSH-31" value="ImageElement" style="rounded=0;whiteSpace=wrap;html=1;fontSize=14;fontColor=#000000;fillColor=#9AC7BF;sketch=1;" vertex="1" parent="1">
          <mxGeometry x="125" y="910" width="110" height="40" as="geometry" />
        </mxCell>
        <mxCell id="B0hIs_xBHr-irciE7WSH-32" value="InputElement" style="rounded=0;whiteSpace=wrap;html=1;fontSize=14;fontColor=#000000;fillColor=#9AC7BF;sketch=1;" vertex="1" parent="1">
          <mxGeometry x="125" y="992.5" width="110" height="40" as="geometry" />
        </mxCell>
        <mxCell id="B0hIs_xBHr-irciE7WSH-33" value="" style="endArrow=classic;html=1;dashed=1;fontSize=14;fontColor=#000000;strokeWidth=2;" edge="1" parent="1">
          <mxGeometry width="50" height="50" relative="1" as="geometry">
            <mxPoint x="235" y="929.5" as="sourcePoint" />
            <mxPoint x="410" y="930" as="targetPoint" />
          </mxGeometry>
        </mxCell>
        <mxCell id="B0hIs_xBHr-irciE7WSH-34" value="RenderImage" style="rounded=0;whiteSpace=wrap;html=1;fontSize=18;fillColor=#A9C4EB;sketch=1;" vertex="1" parent="1">
          <mxGeometry x="420" y="897.5" width="210" height="65" as="geometry" />
        </mxCell>
        <mxCell id="B0hIs_xBHr-irciE7WSH-35" value="" style="endArrow=classic;html=1;dashed=1;fontSize=14;fontColor=#000000;strokeWidth=2;" edge="1" parent="1">
          <mxGeometry width="50" height="50" relative="1" as="geometry">
            <mxPoint x="240" y="1012" as="sourcePoint" />
            <mxPoint x="415" y="1012.5" as="targetPoint" />
          </mxGeometry>
        </mxCell>
        <mxCell id="B0hIs_xBHr-irciE7WSH-36" value="RenderEditable" style="rounded=0;whiteSpace=wrap;html=1;fontSize=18;fillColor=#A9C4EB;sketch=1;" vertex="1" parent="1">
          <mxGeometry x="420" y="980" width="210" height="65" as="geometry" />
        </mxCell>
        <mxCell id="B0hIs_xBHr-irciE7WSH-37" value="……" style="rounded=0;whiteSpace=wrap;html=1;fontSize=14;fontColor=#000000;fillColor=#9AC7BF;sketch=1;" vertex="1" parent="1">
          <mxGeometry x="125" y="1072.5" width="110" height="40" as="geometry" />
        </mxCell>
        <mxCell id="B0hIs_xBHr-irciE7WSH-38" value="" style="endArrow=classic;html=1;dashed=1;fontSize=14;fontColor=#000000;strokeWidth=2;" edge="1" parent="1">
          <mxGeometry width="50" height="50" relative="1" as="geometry">
            <mxPoint x="240" y="1092" as="sourcePoint" />
            <mxPoint x="415" y="1092.5" as="targetPoint" />
          </mxGeometry>
        </mxCell>
        <mxCell id="B0hIs_xBHr-irciE7WSH-39" value="OtherRenderObject" style="rounded=0;whiteSpace=wrap;html=1;fontSize=18;fillColor=#A9C4EB;sketch=1;" vertex="1" parent="1">
          <mxGeometry x="420" y="1060" width="210" height="65" as="geometry" />
        </mxCell>
        <mxCell id="B0hIs_xBHr-irciE7WSH-41" value="NodeTree" style="text;html=1;strokeColor=none;fillColor=none;align=center;verticalAlign=middle;whiteSpace=wrap;rounded=0;dashed=1;sketch=1;fontSize=23;fontColor=#000000;" vertex="1" parent="1">
          <mxGeometry x="-150" y="855" width="150" height="50" as="geometry" />
        </mxCell>
        <mxCell id="B0hIs_xBHr-irciE7WSH-42" value="VDom" style="text;html=1;strokeColor=none;fillColor=none;align=center;verticalAlign=middle;whiteSpace=wrap;rounded=0;dashed=1;sketch=1;fontSize=23;fontColor=#CC0000;fontStyle=1" vertex="1" parent="1">
          <mxGeometry x="-95" y="840" width="40" height="20" as="geometry" />
        </mxCell>
        <mxCell id="B0hIs_xBHr-irciE7WSH-44" value="RenderTree" style="text;html=1;strokeColor=none;fillColor=none;align=center;verticalAlign=middle;whiteSpace=wrap;rounded=0;dashed=1;sketch=1;fontSize=23;fontColor=#000000;" vertex="1" parent="1">
          <mxGeometry x="450" y="190" width="160" height="280" as="geometry" />
        </mxCell>
        <mxCell id="B0hIs_xBHr-irciE7WSH-48" value="TextNode" style="rounded=0;whiteSpace=wrap;html=1;fontSize=14;fontColor=#000000;fillColor=#9AC7BF;sketch=1;" vertex="1" parent="1">
          <mxGeometry x="65" y="1160" width="170" height="40" as="geometry" />
        </mxCell>
        <mxCell id="B0hIs_xBHr-irciE7WSH-49" value="CommentNode" style="rounded=0;whiteSpace=wrap;html=1;fontSize=14;fontColor=#000000;fillColor=#9AC7BF;sketch=1;" vertex="1" parent="1">
          <mxGeometry x="65" y="1230" width="170" height="40" as="geometry" />
        </mxCell>
        <mxCell id="B0hIs_xBHr-irciE7WSH-50" value="DocumentNode" style="rounded=0;whiteSpace=wrap;html=1;fontSize=14;fontColor=#000000;fillColor=#9AC7BF;sketch=1;" vertex="1" parent="1">
          <mxGeometry x="65" y="1300" width="170" height="40" as="geometry" />
        </mxCell>
        <mxCell id="B0hIs_xBHr-irciE7WSH-55" value="RenderTextBox" style="rounded=0;whiteSpace=wrap;html=1;fontSize=18;fillColor=#A9C4EB;sketch=1;" vertex="1" parent="1">
          <mxGeometry x="420" y="1147.5" width="210" height="65" as="geometry" />
        </mxCell>
        <mxCell id="B0hIs_xBHr-irciE7WSH-56" value="" style="endArrow=classic;html=1;dashed=1;fontSize=14;fontColor=#000000;strokeWidth=2;" edge="1" parent="1">
          <mxGeometry width="50" height="50" relative="1" as="geometry">
            <mxPoint x="239" y="1179.5" as="sourcePoint" />
            <mxPoint x="414" y="1180" as="targetPoint" />
          </mxGeometry>
        </mxCell>
        <mxCell id="B0hIs_xBHr-irciE7WSH-57" value="" style="shape=image;verticalLabelPosition=bottom;labelBackgroundColor=#ffffff;verticalAlign=top;aspect=fixed;imageAspect=0;image=data:image/png,iVBORw0KGgoAAAANSUhEUgAAAaQAAAD4CAYAAACjd5INAAAgAElEQVR4Ae19d38UR7a2v48CSigCCgiBAkIBhCIMIIQiAgkFQGByRhjbrI0v2GAcdtebr9fr65v83nu/V72/p9lTc7qmu6fTSN2j88f8qqe7wqmqp8/TVXXq1AclJSVKftIGggHBgGBAMLDdGPhguwWQ8uUlEAwIBgQDggFgQAhJRogyQhYMCAYEA4nAgBCSADERQJQvZPlCFgwIBoSQhJCEkAQDggHBQCIwIIQkQEwEEOXrWL6OBQOCASEkISQhJMGAYEAwkAgMCCEJEBMBRPk6lq9jwYBgQAhJCEkISTAgGBAMJAIDQkgCxEQAUb6O5etYMCAYEEISQhJCKiIMlJWVqbqGRrX/wCHV1dOnKquqpX+LqH+LnbSFkASsorCKAAMgoJsPnqvf//1/1B/+8X/619t/TPq3CPq32ImI6ieEJGDNUVjdh/vV5Q/vW7/O7iM5zwk8EiZjigWjoC9/+6MmIU5Ih/uOSv/JO54aDAghbRFY16/fUzcffqx/mE5xU+i76+p1PHz1Vtfsdo3rlkeU+6fPLWjldnJyJpayR0+eUY8+fhX6J4rVnfxGJk7p/vrqd39XR4+Pq8amvaqiskqVlJbG0n9R8CRp3ftO2sbeNkJIW0RIX/3+J6008AX75NOvXBXF3uZWW1wol60EbiEI6fylq7Y68a94P9djmcktbYOtbO+oZS2ubOi2PTt7Qdppi97pqP0m6e1khPYQQtoi8JqEBCXc2d3rqDyKkZCm5pfUmx9+zvm9+9O/a2WKNnGKg3vHRiYc20pe6hJ17c4T3YYDx0aknbbonRbs5RJK1DYRQtoi8DoR0r3NzxyVRzESkhtQ6xubtDL94af/dWwPt7Ry/71CuH53U7eh11SwtFf8ClTaNN42FULaRkLCiADWUSaohZDiBbnZvsX2XwhJ8FIsmP7g2LFjyvz5rVxf8y51a6xWfTnbpP5tvUX9faVZvZxqVGvHdquqXc4gGd5foR6dqLN+nU3lqrG6TK0M1KgvphrVL+st6s9L+9QnZxrUoabyHEUNuYbaKtTd8Trr5xano6Fcxxlpr9D5zPRUW+XeHK1VuP9mbo/6j8st6tV0oxraX6HKS0vUjZFa9ceLe9XPay3q87ONqrm2TKf32y5O8fgI6eHzf9FftDfuf5STvx9CKi0rU5Mzi+r2o0/VF9/8RX3/t/9Wn735g/rw/jMFAwInGfi9pr3NamXjjnr+xbfqdz/+PystDC9AkH7XkHp6BxTSPPv8a/XdX/9Lff3Hf7OMFhaWr6jKqqq8MkCeICOk0+fm1fU7T61fV4+39R/W3SjuxbXrWpbjYxl9v3X/AdXd2682bj1W//LtX602fPqbt+rC2nVfhiRx1J/3SdhrISRnXRO2PSXd9rVnKELaVVairh7frf77aqv6dcP59/sLexWIwexckA+lmT1crX63uFf/p/sI//1yizraliUTyoenP3GwMid/xBs7UKHzvDKUtVB7dqpB3wcR8fJAQC8ms8/p2R8u7lVlpdE7iBPSeOaspQAxQsI0FQiI6ocwHyFBiT998UaTGvIxf7DOc9sUCVPutz/8nJMGeXz9x1/UlZsP9TMnK7vy8l2W0obsZrn0//Ov/+Q4+uP1xHUQQjo1NafLAxGbefH/sxdWdVzUh54tX7ml7+P6t//6q/5PsiP8/O0f1Z59LTodpUcYZ/15vmGvYb1JssuUXfR3NWw/SLrobW+bsqORUr6G/ei0XXFjVLRxvFbdGa9Tf1zapxX9jyvNaneF3eyUEwopfZDX/Yk69eRkvTXSovvfzO/JUQg8fRRC+svyPnVrtNYaCVF5CCHL7bFaa7RG97v37sqRI18bmc85IY1MnFaZs7NaiXCFiXSehFRaql58+XudFgr1zpPfqJWN2+rB8y8sgiPldOvRJzly19U3WiMBioP9Kyj/yo0H6tV3/6rzpedOhAQyoOcIYc6NUchlK4+/6Wdv//BveUcaQQgJ5u8YCaJMjOpgHm+2M/3HqJFkPNR1WMfjhETPMbLEaBEjDRAy3ceoCZ4PKE8K46w/5Rkl/OjlN1rm9o7OHHmj5C1poytZaUP/bRiYkAZbs6MPjCowhcYbHFN1nLAwPcafc0KBwsf0W3lZVuD2+nIbGWBazy19FEI6vv+93CiPiAfhgX+O6o6yel7oi+5+xSSkXbsqFN2Dcm1ozJKvFyHB2owUJizUzI2rQ6MnLGWNOBjBmGtUF1av6fSfvPpe1eyu0+0Lhc+VG/IwCelI/zGd/ps//4fqPzqs06OfMFXHFTYUPe8/8zoIISEttyg7M33eMW9M51Eb/ebND7Y4JiGBtMvKsxhD27/+PkvM+HjgMsddf553mGvIS94Z0N8VFc6zBmHyljRZvSRtsTVtEZiQvj+fnWI7edB5naC6olT97dL7kdJ/XWlVleXZynBC+tdL+xSm/8zOBkkRSZw0puV4+iiEVFf5/su3tKREj5JAsPgPeWoqSrUMGP2ZMgb9T+QDRUlKbmruolacUJSUpxchYc2HlC1MqSkNDzHaoTgf3num42Cj5Ld/+U/97GBnj35G6bGuQmkRmoQEBU/PsSGT0vGwqrpGvfn9P6x4UJbWBk0X45GghAQvElT+p1/+zrF8PuU4Obtoi8MJCaMtyMplx/XoidO6DJA2fx53/Xnefq4xXYj2bNq7z9oA+/Ldn7WsWD/0k4fEydU50ibJaJNAhAQDBCKKvy7v8wQ/RkYU9/C+7JQXJxQYEDgBAWtLlHbxiH10wtOHJSSsfRHxoHwYUqA8rBeRPHhOMmAqku6HDZ0ICWs8tA8HypGmoFwJqbRUj36g6GtdpqxANKS0MR1FMmO0RPexRkL3zZCTHiek+oasifZXv/vJNT3yw8iIynLbb4V4QQkJaSA75W1OUWGEgJEbnlvTerX2vuOE9OG9Tcc6QOHDSAN5YNRB03aFqL/Z9vn+P/70S113agNMT84vXfZtSJKvDHmeDOW8E/shECHBqo6UNEIYHtAPRgL8x+Od686OpDihzPfayYY6YKKjUpcDiz26j5CnD0tIsObjeWLdCPJi9Mfvo264v5lxX6tA/JqaGtXT02OFPD2/diIkPJ9fWtcKBtZpuOdGSFwhYr2H58+v8RVNygpER8+waZLuw+iB7psh1oIoHickWJXRfYRYv3L6gQh4PJ6HWVYYQjo7d0Hnj7Uznid3o4PFfv4M15yQMEI1n9N/jL6oDhiN4H4h6o98/eCH5Hry4istF8l36+HHlmdviiOhEEpaMRCIkKa6qzRRcMLJd32xPzstEoVQ0MhR0pOV3T9W7YT03cIeq15fG0YUmMJD3bAm5tXBIKNMJmORkls8N0LCGg59jePLHlNIboR0qKtXKyOs9biVhft8cX73P0cJp6bmdfpLV+2KnOcFYiRlx8nkxJlpfZ+e+wmnFy65yhqGkDAyJNJDPct3ZUfg3KS+b/B4TrmckLzM43k+ZLlWiPqj3f3gh/qnpe2AwhoZzNf5hwP6AdsAKJ6EQkppxIBl9k2C57OyO38kO5X2eqZRjbZX+PrxvTxRCAVyRklfKELy84XrRkio09L6Da3ozy0suxISHIwSAXj5wkOecLJJcRv3vP/Ch58zuudFSDPnV3Q8Tkg8PfbrwImnn5+b+TTkDENISMdNnWHIgXswDCFTdBgmlDo4FuWEROmQ1vxxQiLDjULUH+X6wY8pH/3nHxlYH6TpRXouYW7fSpskt00CERI2k9Jo6NNJ71GDW6dHIRTk6Sf9mc7sSM5pH1LcIyS3uvL7XoQEpUxf/PDb1tZ+UBMCCIScq+5radP3P/NYA4KHZ8qPr4FAARMhbdx+kqOESd5LV7N7dTghDQ6N6vT3Nj93TU/5+AnDEtKRgSEty/1nLy1ZMBKj+mEq1Kl8TkhQ5k5xcI9bG6I/cK8Q9Xcr3+99bJDmR0/Q9KLf9BIvucp5J/ZNoCm7/XVZowanPUJ+GtAPobhtbEX+fJQ2zdameNmX2ObbNBASZMf5Q6RMMXqha4RESDAVpxEAvoahjHi96ZoreYwU6D7241C+jz95re/TcwrvPHmh43FCamlr1/c/ef1b1/SUj5+Qy4q6+UmDOBj9vPru/Z4nGHggHzJ2QD5uipkTEjwyuJXHR5hkiVeI+ruVH+T+3aef6X7xMiAJkqfEFaLaDgwEIiSYaNNCP0ZKXXuy+zf8Ch+VkDKHsqOfy8wLAy8fG3VpJJcWQsK0Fu0nIdKgkAgJdYR1G93HFzuvN13bppZevNFxausbNKG5WelB+dLmU5TDCQnGEtyzgZPZOMngNwxLSMh/9sKabgtsDqZ2wXSbW/mckLDx1em8IE7csIKkvApRf8o7Siiug4Q8ouAnSWkDERIEh9UbKfvXM00Ke47cKgTC4hZ2iBeVkLilH7xCwP8cL7+/JTutCDnTQkioA8yQSanykBPS4kr2XCH4kNtVYd+YjAV/KFpKP35qytY+/Gua+3ijNoT5MKVFyAkJcbjBw+Znbx338VBeICwzPT2jMAohYc3IicSx4E/5myEnJNSP9oRRPIy8bj/OeqJYunzDllfc9adyo4RCSHYdEKUtJe32tqUmpIqKCu1k1atTKspL1J+YeyDsR8LUGdzr7NtdpgZaK9Rcb7V6O/fecu2r2SbbCx2VkDBKg0siIkWMhlAmiAoeFfgILm2E1NbeoUcwnBQ4IcEq79u/vN8jgzibn32tYM6N6SSsEb189ydNKNifYi5ycy8GSA+zaYwIQB7Ll2/qtFS+SSjY58NdDGFqC3GQHqO83r6j6sz0guW0FXk8+/ydrf9NbEUhJOSFtSySFSFGNNzqzizPJCQQGgxJsJ8JZt3cWALrcNyDBvKKu/6mfGH+c+8VcrLu9irUMP0nabJ9ZhFSdXW16u/vtwipt9f50DjeaCCfH/65d4eIwS2Mm5Agx+pgdpRmlvufV1otv3h0P00jJNSNTz2RouWEhDhjJydtU2cUj4dQzCAH3m90zY0WeBq65gYYJiEhD5AP9xVH6ZzCQhMSrPx4uavX7jrWmerOCQkGJDwtv8Y6FIiV0vEwzvrzfMNeYy2MZHfznhE2b0mXVZbSFoVviw/q6urU4OCgRUZdXV05X9RunQB3QPC0QHt1iAAo/Gm1WT2YqLNGLzyP5f6st+/xA/bpJorHrfnMjbGIA+/bIBoqi0J4XMAak1v6p5l6Kw2OyaCyEL6bfz+aw3EU/D7qgLzzbYzladyuuSXU8Lj7lBJfvyAlg1GEmS++6LkbG4oLRQqTbLdFfcoHR0zQ/idKi7UjeMnmXrVPnD6XUzbygDcDGF/w0RrlgxD7gzZuP3YlRZIDzl4pHUYkdN9vCD90ZFGIfDoOdXvmwQkJI0scPcHTk+wgOi8Z4qq/Vxl+n+FYDmpDHPpojor95iPxCq9wpY292/iDo0ePWmTU0dHhuG8jXwPCxc7e3WXWeUIwt4bzVVjjmWs7+fIJ87y+qswqDyTE9zqFySutaTCF13Nk0Bo1wcLK7cgJp/rBSg/uhOC7DZtuuZNRp/iO90pLLfLDXp2xzKSC81FMH26VUkTdSRnDC7qjjGyfESck2l+EaThMdQ2Pn1L7WvY7Gjq45rvN9YdcaG++lgbLShATTPubW/fnbRPXurF2kzjeilTaJ572sfYhtbbaz+ORxo2ncaUdC9+O3LM4Rn352tyJkPKlScPzuYtrNlIiku7tP5a3TdJQP5Gx8O9SEtr4g6am3OmgJAgmMuwMAEbpZ34UB6YOcXxGvvyKlZBQbxiVYM0PlpLw+A5/hfDenq9N5Lm8a0nBgLayS4pAIoe8HF4YwGm7OF4CJ9LSKAAhznnySkfPipmQqI4SyjuUVgwIIck8uS9FnhSAO+3VwkjAzWuFKbcQkihrExPyPzmYEEISQkoVIZ2/dNU6wv3T17+1Fu2x8TeIAQW8WMD4AT8YcogySo4ykr6QvhBCEkISpSwYEAwIBhKBASEkAWIigChfx/J1LBgQDAghCSEJIQkGBAOCgURgQAhJgJgIIMrXsXwdCwYEA0JIQkhCSIIBwYBgIBEYEEISICYCiPJ1LF/HggHBgBCSEJIQUkmpqq7M7+VBFKYoTMFAYTGQOkI6fOCoWjtzz/dv+dQtm8JtrN2r086PX7E98wO2sOUPH86oCyeu619XW79j2eVl5er8xIaOhzTVlTU6btjyp4cv2fJs33tI52nWG8qZy1pVUa36D43odgvS/hS3o9nbC7cpg/k/qvxmfmjnib4ptXr6jnqy/JX6eP179fDiK7WUuamGuk86tk1L4/6cNlg6eUOdPrqgBjpH1f49B9WucmcP9lR+2P6j9BIWViFK+25v+6aOkMaOnLWUBxSIn9+zVfsBcW17OnS6e4ufOyoeL1CGLR8Knsu7PnnfsezO1j5bPKRp2J31Nxi2/IcX/8WW7+XJB47lo+6NtXtscetqGtWpwTnbPV4XP9cDh5yPW/dqa/4sqvw8r4ryCrV65q5nfWZH13K833e2HvFMg3a4t/hSHWpx33Abtv+4/HK9vUpT2r9w7Z9qQvpo7Rv16OIrz9/d85/ZFG+chBSkfJOQnq99p2qq6myyAegL41dzlJ4bIQUp31ToUJ74ond6uZwIafTIpGM70+iCSMmtPzAycCrL772o8mfLKVVXpx7pNkYbgpzPDS+rjemn6vn6d/rZ/Nhlm8yckJ6vfavunH+hNlfe6vjUBgjnxtZVedkuW3rIwAkpSP9l5S+cMpAypG23GwOpJqS50fWcFz5fg8ZJSEHKNwkJSut4j/2gvl3lu9TTS29yFJwbIQUp30mhXzKmM6ntnAiJnplhbXW9lhfK3Hwe1/+45D+wr8smb0/7oE1mEC8RCz4aamsa9HNOSNdnn+n7u6vrFaYkOdEhj9HeMzoOtQMnpCD9R+klFNIoZgwIIQU0agirUDgh3Zh7bim9K2cf2hQWlCMUGb6+b85/rBVjoQgJZe1ryD0LKy2EFEZ+rBsiHX7Tw8u29qcXHetKFGeiP3tirhshUbrS0lLb1ObjpdeqcleVrYyw+KEyJBRCKmYMCCFtAyGN901ZCg8jitrq7Bc4kRYMAS5P3tdKMW5C4usnixO5xzYknZDCyl+5q1Jtrnyt27WjucdGFvSiD3Wf0HH4lG8+QkJ6GEvAOIII7eTAjK0MISQhFMKZhLlYEELaBkJqazqg8PUMpTXSe9pSWBWWsnxn3TvaNV5QQoJF2N3Fz6yyMC0FAuIvR9IJKaz8sJIjooCxi9MaD9qhwTDqoFGOH0JCepAQlXNtZtPWtkJIuUqIY0+ud3b7CCFtAyE1N+5XMyOrltLamH5iKawjHcet/x+tfWuZeRdyhNR3cFjxUQAsyrgiSDohhZWfE8qthU9tdeb1xzWmTYlUsFUA93h6voZkpuXrVI+WXtvKEULa2QrXxIr8t+Mh1YQE5f1o6ZXn70T/tE0hxGnUEKR8mo6DkgMhHdjXrRVefU2jWs7ctP6vnL5tyeuHkIKUz40CoNAxOqB7sPbiU4dpIKQw8g92juk2pw8BN4XwePlLHZf2bPklpD11+3Ra9DfMzKkcTkhB+o/SS2hXYNIexdUeqSYk+oL1Cs8OXdDKAOCNk5C8yqVnVL5JSFgAp7UGbKx8tvqNpcRov44fQqIyvEIqn8gHcUFIaAtYgVHaqaGLup3SQEhh5B/vy+5hg+GClzLD2hG1DZms+yWkqooanRZ5gKCoLE5IlL9XSP1H6SUsLgUs/Wnvz1QTEva8rJ256/nDegzv9DgJKUj5JiFBJux94coIpASvCHjmh5CClO9ESFjkp31EWOwn9zlpIaSg8k8eW9TtfeHkhzZccIzgGlN61DdYs8I9v4RUUlKqsDZH6bnxBCekIP1nyif/7YpM2qM42iMWQqqpqVE9PT0KYRhgBEnPX+gw+zjiJKQg5TsREqaCSGkh5G6O/BBSkPKdCAl9xRfgM4NzVv+lhZCCys/r6rYHi/B7mxFS38HjgQgJU3S8X2FMQflGxS/lI2FxKGDpR3s/xkJIIKNMJmORUpgGDpI+6gudJELCl/T9Cy+18qKpNLThVhES/OSRt4Enl95Y+2bSREhB5OeGHNjE6oVVmk4FsdAIx+8ICWb6nJC4L8Ko+PWSWZ7ZlZu0R/raIxZCCjLCcQJJkPRRX+hkEVKJZfa9PvneWSymoKh9toqQUB6fykL7pomQgshPG49BFticTG3tFMIsnEhlb32LFdcvIcElE6UF2fP8o+KX5yXX6VO40mfefRYLIW1lI0d9oZNGSG5tt5WEBPc/ZFSBdQ14byCFihDOVd3k3A7XQXwkCbn8ys+JAlZ0GKE61QsjGl7/6sraQIR0rGtCp4fHDV5GVPzyvOTaW7lJ+6SvfYSQtmkfUr6XZSsJCbLMjKxoJTp1fElfp4GQ/MrPyRP1am5os5EF9Qms6oiQ4FsQFpF45neERK6hkMec4aA1TkIqLy1R/S0Vtl9TdZljnahuEqZPSe+kPhNCEkKyFBjWPfhmUFLICJM+QsIL61f+y2cfaLKBI1Wnl502LaPuuKY4fgipqy17fAj2GWH6k9IjjJOQ9tSUqV83Wm2/i33vrTR5mXItJJQWDAghCSFphbkwkXv0RVoICS+cH/kHDo1oQsK0HdwE8ZcVlo80fYm6tzV16OdehAQfdqcG522kzsmMyhBCEnIgLEiYi4VUExIO2MPpqvl+3DkpX0PCwnW+tHjOv6S5QglSvpPZtxcg/UzZBSnfzeyby4DFe34eEBRymgjJj/wwyaa9V6gbNsCif0E28OpBPgbx7MPZjzQZoZ04ISEPTHPCw8at+U9sJIa0txdeWGtbvH1xHRY/Zj74LyOkXIXm1E5yLz3tlGpCwovv58cPouOE5Cct4sD7NoGaKxS/6VF+IQgpSPl+CAl1JBdGPO80TNlR//iRH2tHMN7gdTSvYYyANSfKFyEnJDM+/ceGWFgt4mwrnpauw+KH0vOwvb7cNl2H6buFXpmy420k1+khI/RV6giJu7shJZAvhHdtAmZrU7unInLKi7uZCVs+jnmgvJ3OICL5KAQJUnxOCGHL5/udjnQM6fag8ijEFBWVS6GpmCkuQpx6S/HgE48/i/M6bvmxtrNx7rGCzCQ/ws2VdwqbZvneIarHwZbDtriID6MHePTGdCFGWC2N7Z5tELb/SAYeTndX2Qjpl/UW1VAlRg28jeRaCMnzhRSApAsgxd5fGMlgBNt/aMRyeltWmh6FvpmptxHSlaHd8u4FXBMudnynrX6pGyGlrYFFXiHgQmCgtKRE/bjSrAnp57UWVVuZHjItRJtInul/14SQ5Iuq4F/Vu6vrFU55jfJbGL9ScDnTpNDM9aPVQRkdpan/RFZn8hRCEkIquKI3zwfiazZ+rx9c+KLgcqZJScwertajo59WW1R1hbPXiTTVSWR1VtI7qV2EkISQCq7oYXaPk1Oj/EwT7J30kjrVdbi9Qt0aq1U3R2vVREfWB6JTXLknij4tGBBCEkIqOCGl5WUQOUVxCwa2FwNCSEJIQkiCAcGAYCARGBBCEiAmAojyZbq9X6bS/tL+ScCAEJIQkhCSYEAwIBhIBAaEkASIiQBiEr7ORAYZJQgGthcDQkhCSEJIggHBgGAgERgQQhIgJgKI8mW6vV+m0v7S/knAgBCSEFIMhFSqqivFU0ASXmiRQYglzRhIDSHB+SU8YIf9dTR3W4oXx1MHyWP51C2tsHE2EqUd7BzT950AgM2gFBfh2JFJ23/+zM81ye9Ulp9708OXrCMwcAwGfjiIzi0dyIXiIayqyD3SAAfSTfRNKXhCp/OFHl58pZYyN9VQ90nHvFsa9+e0wdLJG+r00QU10DlqOTndVV7hmJZkjdJ/lIeEorQFA8nEQGoI6dTgXI7rf79uZxBv4NCopeiCnkeDQ/wIvMd7MlqGJ5feqOrKWv2M4lCIIwxIvvXJeyou+Sn/oCE/DwlyXZ584Co7jmYg2RHy4y9QLg65g186Hse8nh1dU6Wldnc2fs4Turf4Uh1q6XWVLUr/BW0ziZ9MpSX9Urz9khpCwqmeOFTN/NHXOSlE8zn9x5c1gMwVGs7CoeduIU4UpRcAChZn31BZs6Or+hnFQdjZ2qfj4HwdjJbikp+XE+TaJCTUgR9cyPPyJqRSdXXqka4f2hDkdm54WW1MP7WdODs/dtnWPpyQnq99q+6cf6E2V97qvKhdEc6NravystxD7qL0H6+jXBevUpO+TW/fpoaQ3ECGw+NIkeH4bbd4dJ8rtLnR9bzxKR2FOIANp4KiTISYhqJnCDGVBUVLMmGqjj83r4PKb6b3+9+JkDCKc0rvRUgH9nXpuqG9e9oHbXmAeKnuaJ/amgb9nBPS9dln+j68gWNKkhMd8sBhdqZ8UfvPzE/+p1d5Sd8VX98JIYUwasBogJQulCh/MbCuQs/gEDTfgW/bSUiQ0+n0Wi9Cmh+/ous3Pbxsqzu1A9aVqA0m+s/pOG6EROkwAuVTm4+XXqvKXVU6PeIJIRWfEqL+l1D6VggpBCFBSfIRR9/B45bSxFrL5srXljLGlFS+46zxAm4HIfH1HxytbioCN0Kq3FWp6wfC6WjuyUmLvIa6T2hC4lOe+QgJaTHChHEEEdrJgRlbGUJIorRMvMr/4sGEEFIIQsILcKRjSCvN+xdeWgv9sEgjRXp26IJNkbq9NNtBSLBou7v4mSUrptVAQFw+N0LC9CTVD8YeTms8yKfBMIqgUY4fQkJ6kBCVgzU7LpsQUvEoH96vci39CgwIIYUkJDTeGrM04+sf9xY/twjKz0u2HYTUd3DYNoqBRRyX1Y2QOKHcWvjUloanxzVGiEQqjbV7rbg8PV9DMtPydSqcocSfCyGJ4uJ4kOviwsOOJqSP1r5Vj5Zeef5O9E/bFCJ/AaC4MVIgxUuhl9kyT4/r7SIkjG5o2hGWcrXVWeMDN0LC3iuq48b0E9d2Qb0eL3+p49KeJ7+EZOwZqYQAACAASURBVJ4wCzNzajdOSFH7j/KUsLiUmvRnevtzRxMSKVevMN/UW2ZgVite5IPNs0FeiO0iJMgIKzaq+9TQRS23GyGN953V8WG44FVPrB1R3mRy75eQqipqdFrkAYKisjghUf5eYb7+o3wlTK8Sk74rnr7b0YSEvUeYdvP6He0a18rQCfgYQXGFaE5/OaXh97aTkGCkQPu4YIxB7n/cCGny2KKu64WTH3q2C6b0qF2wZoU6+yWkkpJSbVqPPLjxBCekOPqP94VcF49ik75MZ1/GQkg1NTWqp6dHIQwDhCjpgyp0rtDC7EPi9cPaiDllByOB1qYDvtshqPy8/CDXND0HBY81JErLDQgyg3PWfTdC4nHd9jBRvrcZIZEVol9CwhQdkRlCvtcrzv4jWSVMp/KSfiu+fouFkEBGmUzGIqUwIImSPqhCj1OhrU/e14oTLm9IicIyzHSb49YuQeV3yyfffTdCqq6s0d4S4A4JFnFuhMTNuc39V2b53HSbRjh+CQmeLagtEUJGyj/O/qM8JSw+xSZ9ms4+jYWQooxwAJwo6YMq9LgUGqahSGnCEgzTXddmnup7bg5GzRclqPxmer//3QgJ6flUHNrHjZDglYHqfGPuuSYJJxn4yHFvfYsV1y8hwaURlQPXQjz/uPqP5ynX6VRe0m/F12+xENJ2AiOoQo9DoYF8uBUZrZHAmowUKdZmvJyvUpsFlZ/SBQ29CAkyPFv9xpId6zLw3kD1QEjOVTlRoP5Y63GSAyManp7awS8hHeua0Olvzn9sKyOO/nOSWe4Vn3KTPk1fnwohhdiHtDBxVSvMK2cf2hTz4olr+tmc4VzU6QVJAiFBrpmRFS331PElfc0JicuK+80NbTayoPrBqo4I6emlN3r60i8hYfRF6c02jJOQyktLVH9Lhe3XVF3mWCeqm4TpU3LSZ+npMyGkgIR0sOWwVpbYB0PTUQT6+ppGbegA56O0B4eemyFX8n6cw5rp/f73GiEhD6zb8M2sRAgIaYSEeJfPPtD1hyNVp/JnRlZ1HFxTHD+E1NWW9ZSO9sX0IaVHGCch7akpU79utNp+F/tyz37i5ct1epSb9FX6+koIKQAh4fA4vr/mzLHzNmVJL8CpwXmtkPG17+VgNSmEBNn5yM+NkAYOjei6YdoOboKo3ghBwDT9hzzamjr0cy9Cgg87tBsnRU5mVIYQUvqUDPWdhNJ3+TCwowkJLn6wkTXfD6MHNCQIiBS1l3sg7O/hI5Lhw6e0UjY7JEmEhNEeRmlURwr5CAkm2bR3Cc9B0BgpgWywJwseuikdvJ3z+nJCQh6YJlzO3FS35j+xkRjS3154YXmx4OlxzQkpaP+ZeckISRSkiQn5v72Y2NGERIozX4jFfKyXYAqJ4nbv77cpWxPI3M0O1lF2V9U5xk8SIaEOIAiqI4WckBAHbQHjB3ruFMIYAXXj7cIJySkN7mEfF6z+dpXnHs6HvDghueVh3nc7iLC9vtw2XYfpu4VembLjfSbX26ugd1r7p56QaqrqtGKET7Z8Hcjd5ZiKy+1/W9MBxfccQWnnKwf7kK7PZk+XxWjAKU1Q+Z3y8HMPHsmpfvBU7pYGU2wUj0KTWJAWazsb5x4rtDnFQ4gTcrFplu8dorL4+hulAVlj3xamCzHCyndkR9j+Ixl4ON1dZSOkX9ZbVEOVGDXwNpJrIaStxEDqCWkrG0vKyn05MZLBCKT/0IhqbtzvuV6WtPbbzNTbCOnK0G5Xok6a7CJPLhalTdLfJkJIAYwaBPDpBzz1YWlJifpxpVkT0s9rLaq2UkZH1D4SFg/W09SXQkgpIKTd1fUKp7xG+S2MX5Gvf9bX5vrR6qCMjtKkuETW4iRMISSmpJIKcvN8IFp/CRI+uPCFEBLr69nD1Xp09NNqi6qucPY6kVRMiFzFqZB3er8KITEllVQwwOwc/vKi/EwT7KTWdavkGm6vULfGatXN0Vo10VEpZJ2C92CrsCHlbB/ZCyHJiyjKWDAgGBAMJAIDQkgCxEQAUb5Kt++rVNpe2j4pGBBCEkISQhIMCAYEA4nAgBCSADERQEzKF5rIIaMFwcD2YUAISQhJCEkwIBgQDCQCA0JIAsREAFG+Srfvq1TaXto+KRgQQhJCEkISDAgGBAOJwEBRERLO1MHx4sHZvjRkOvmyCt7WSWwz6f/i6MckYktkCoKt1BNST/uAwkFu12c2tedpeJy+OfexOjkwYzvtlDcMyGuib0qtnr6jz/d5ePGVWsrcVEPdJ3NIbfhwRl04cV3/utqcj59AvjhficeF5+uo6Ul2HA++duae79/yqVtWXaaHL9lk8jrJFqTO5a+qqLacpwYp14zb0dyd06ZUJz9hVPnNMoL2P9K3NO7PafelkzfU6aMLaqBz1HIyi0MczbL4/7D9x/OQa1HyxYqB1BISTmE9N7xsO/rAyZUOzuUxOw+HzMEvnFN8ujc7uqZwhASlhYKmZwhxHAU942Fna/YIbooPTwtR01MZQc8Derb6zpKTHxgIuS5PPnCUH+XgaAmSHSHOQzo1OGe7x5/7uR44NOpaHtXNK4wqP887TP8jvZ/znO4tvlSHWnpd6xq2/7j8ci2EVKwYSCUh4UTWy2cf2BTknfMv1ML4VTV1/KJFFjhnB4oyl5BK1dWpRzotzvOBcga5bUw/tZ2YOj92WSsWk1BwkBzOMjKBARlMBe1ESEHTUzlcoUF2HJTn9cOJrkhrKnTI6HZwnRMh4VRYp3L46bHI0ykO7mFkQHUIE0aVP1tmuP5Hek5IOGodmNtceZvT32iHubF1VV6We8hg2P7Lyi/KWNqieDGQSkIa75vSSgCK3WmKraqixiIZ04fbgX1d2bTr36me9kGbooTiJUJB3rU1DdZzk5AQ53hPxpYWZwMREVIeCJ0IKWh6egm5QpsbXbeVT3GcQieFjoP0nOI6EZJTPNzbjhNvqW3DyB+2/1FXTkjXZ5/ptoM3dkxJ8g8dyIjDBM12C9t/Zj7yv3iV8k7u29QREqZb4GSUlNKxromcl553KEZT/P/8+BWddnp42faM4mFdifKf6D9nxeGEdGPuufX8ytmHtvQgN6TD1zNGZpSHSUhh0pNsYRWaEyFBvn0NrbY6oJy0EFIY+cP2P9rFjZCobzDFy6c2Hy+9VpW7qmztG7b/qAwJhYiKGQOpIyR+hPWDi1/Y1nnydRTIaXPla00UHc09NmVB6Ye6T+g4NOXFCYlGaM/Xv1O11e9HUEhLcbCgf3nyvs7DJKQw6Um2sAqNExJfP1ucuJbTBkknpLDyR+l/tH8+QkIcGEvAOIY+RmBYQ32HMGz/8TzkWkipWDGQOkK6eu6xftlh3RSkY2AlRYoCi/1Oc/zIr8FY1MdXLpEN0rc1HVD4+sX1SO9pS4YKi+zeWfeOdo17ElKY9FTPsAqNExIswu4ufmbJimlJEBDljzDphBRW/ij9j3bxQ0iIBxIinF2b2bS1bdj+4/0j10JIxYqB1BESDpqjlx3rAUE6hiuUWwufeqbFtBuV01i710ZIzY37LVNzPN+YfmLlc6TjuBX/o7VvFcy8vUZIYdJTPcMqNE5IfQeHFR8FwqKQ8keYdEIKK3+U/ke78PR8DYm3Ha75OhWml/nzsP3H85BrIaRixUCqCAnTIZgmI6Joqttne9nzddJg55hOS0Tilubx8pc6Lvbs8BESCOXAvm79vL6mUS1nblr/V07ftmTKR0hB05OcXKGB/B4tvfL8neiftuQxCQmjQ7oHaz0+9ZgGQgojf5T+R/v7JSTzhF+se0btP0ovoZBRMWMgVYRkTqVhw2aQzhnvO6tJBIYLXmmxdkTEB5Nlk5CwgE1rBZg6fLb6jRWf9tvkI6Sg6UlWTkgkn1d4duiCIyEhP74eNzV0UbdHGggpjPxR+h/l+SUkWHjyPgFBRe0/Si+hEFIxYyBVhNS+t1O/6JhSC9oxk8cWdfoLJz/0TI8pPVIqWLMwCQllmxtzQUpEkvkIKWh6qisnJOzvWTtz1/OH9SykpdEQ6oQpL9zDIj/tI4KxB7ldSgshBZU/Sv+jvfwSUklJqcLaHOGHG8+E7T/qfwmFkIoZA7EQUk1Njerp6VEIwzSW3/R761v0S46XPZ+bFlMWvtjstoeF0txmhNR38LgjIWEqj5QOQnLTgzz8EFKQ9CQXV2hh9yERISFP3iaZwTmr/9JCSEHl53UN2v8oyy8hYYqO4wLGFFH7j9JLKIRUzBiIhZBARplMxiKlMI3lNz2s3fiLXr+7Sb/ofsrlC/nYxOiVhqbjUB6+cJ1GSPgSvn/hpZaJK3o/hBQkPckaNyHBAIO8DTy59MbaN5MmQgoif5T+R/v7JSSY+XOcQsao/UfpJRRCKmYMxEJIfkc4bg0ZJD1NMeGFb9vToV90t7z5fdq4irTYnMqfmdcwCyelgpGZMyGVWGbf65PvnZ1iCony8UdI/tNTvnETEvLlU1nIP02EFET+KP2PcvwSElwyEXZA9tR3CMP2H89DroWUihUDsRDSVjYOXAHRy2667sknB1cUsKLDCMUpDb5oqQyE1ZW1roTklB73/BKS3/QUL6xCc1pDojzh/oeMMrAuBe8NvP5wrkpxzXA7XAfxkSjk8St/lP5HOX4JCd5DqP1MX4ph+89sd/kvpFSMGEgdIc2MrOiXHUdOBOkUrjyhMJob2hzTw6qOFAp808Eizm2E5FZ+mggJdeDtOnV8Sdcf7ZB0QvIrf5T+Rxl+CYlcQ6Ht5piDXuQRJyGVl5ao/pYK26+puswR0yhbftIGScdA6ggJpt9802pr04FALxr3Eg5Hqk4dhPOViJBwjTjFTkhY9+DtSvVPCyH5lT9s/wMDfgipqy17/Aj2iWH6k2MsTkLaU1Omft1otf0u9gXbCsFlk2shrO3GQOoICQ3Gj3iA8YGTg1DEw7k0/AgJ3Bs4NKLJBtN2IDjeCbB8o+krKOO2pvfrVMVOSFa7TuQenZEWQvIrf9j+R/5ehIRN26cG522kTh8zHF9CSKL0OR7k2o6HVBISPDTwYx5gHYZpJrjvOdhy2DI0II/d5hw+THK5YQQ2wGKkBGUDrwbkow6KmB9dkURCurf4uXU6LU6o9fph9OC1hkQvBYw3uCcMtEGaCMmP/GH7H23ECQkYwjQnPHTcmv/E9hGDNru98MJa26K2pZATUpD+o/Q8lBGSXZnxtpHrdLZNKgkJYGuq3WspAlKabqFJSEiLtSMs3rulwX2kw5oDATuJhOQlP3+GxXw/hIS6kgsknj4Na0jUT37kD9P/yJ8TEm8ffo0NsbBaxNlYJBMPOSHxdF7X6D+eB12315fbpuswfbfQK1N21D4Spo+UUktIABvMrHEyJ46hcHqhr808Vf3/9EpgghNz+xvnHiv4ceNpN1feKWya5HtHkBbHNFA8tylCXgaOoKD4UOhR01Pe3N0P5Z8vhHdxvl/qSMeQo4JDGZiiNPPjxExyUIhTcyk+2pLuxx3GLX/Q/kd9MPqmulKIkTo8ei9MXLVG2C2N7Z5tELb/nNpzurvKRki/rLeohioxanBqK7mXDnJKNSFxkO2uqlOdrX2q/9CI5W3Z66uep8OXLL5AkQ5OU8tK5YXm7VPs12nu/81MvY2Qrgzt9iTDYu9LqV86SMern4qGkLwqKc/SD1TpQ3sflpaUqB9XmjUh/bzWomor5WNKcGLHSdraQwhJ9mcU/Kt6d3W9wimvUX4L41cKLmeaXl5z/Wh1UEZHaeo/kdWZOIWQhJAKrujN84Fo/SVIiIMZ5SXOvsSzh6v16Oin1RZVXeHsdUTaLNtm0hbJbwshJCGkgit6mJ3j5NQoP26CL4qlRA23V6hbY7Xq5mitmujI+lCUtkm+0pU+cu8jISQhpIITkryA7i+gtI20jWAgiwEhJCEkISTBgGBAMJAIDAghCRATAUT5Ssx+JUpbSFvsVAwIIQkhCSEJBgQDgoFEYEAISYCYCCDu1C9CqbeMhgQDWQwIIQkhCSEJBgQDgoFEYEAISYCYCCDKV2L2K1HaQtpip2JACMkipFJVXRl9pzvOxIkjn50KxvTWOx78pLf+QiDSd/FgIFWE1NK4X8GLNv8tnbyhTh9dUAOdo5aT1F3lFb6++EEeE31TCucm0flIOOxvKXNTDXWf9JUHQNjTPqBwEBuOUyfP4fAYfnPuY3VyYMZ2/DccwJLskNsNxJW7qtTambtWXMiHeMOHM9aptTgGA7+utn7H9KgXzkaieAi553Icz04y+AmXT92yypkevmTLEwcZuskPUublV1VUW85r/ZTnFqejudu1PDc5+P2o8vO8cB0GP3HgN2z/mfLL/3gUqLRjvO2YKkLycx7NvcWX1kmxXkDBIW3wq+blumZ2dE2Vlrq7Y4FX8HPDy555IH9+HhPOcKIycWyBm4w1VbU6HuIjHhQ8pUW4PnnfMT08nvN4uIanBCor6Hk8z1bfWWn5eUrI8/LkA50n5U0hjnbgMsDz+qnBOds9/tzP9cChUdfyqFyvMKr8PO+w+IkDv2H7j8sv1/EqUWnP+NoztYT0fO1bdef8C7W58tZR0eGcpPIyp0PSStXVqUc6DUY1UK4gl43pp7YTU83jzwl4OIfp8tkHOg8oVMiCo9Wnjl+0yIJOtC0UIeEgOJxFRDJRyI93J0XvRkioOw4q9PrhRF3kbSp05O12cJwTIeFUXqdyaHRKsjrFwT2MDKiOYcKo8mfLDI8fTkhh8csJKUj/ZeWPT3lIntKWcWMgtYR0ffaZVlDwJo0pHU40UHA4DM1ssAP7ujSR4LjunvZBWxwoTlKOUPq1NQ2258hvvG/KFsdpiq+qosYiOe6DLc4REmQ83pOxyYazfYgIqQ4I3QhpbnTdlt5sK/7fSaHjIEMeh66dCImemSEO/yNZ0R/m87j+xyV/FPxwQgqLX05IQfovrnaUfISEComBoiAkaiBMsfGpocdLrxXWY+g5wvnxK1oBTg8v255RPKzbkJKc6D9ni4PpGjgJpefHuiZszykPCjGaouu4COnG3HOr/CtnH+q8UQbIFXLh6xsjM5KxUISE/J1Oz00LIYWRPwp+3AiJ8OEHv0JIQgiEl2IMi4qQ0EFYbIZxAiljGBZQx4EcNle+1s86mnv0M4qDcKj7hI5DU1b0nB9BjaPTvdaZKA2FcRESjdAwoqitzo7gaJ0JhgGXJ+/rOsRNSHz9DUezU/0oTDohhZU/Kn7yERLazwu/eC6EJIRE71kxhkVHSOgkkBAR0rWZTa0wYeVE97FY77zGVKIajEV5Psq6eu6xzgPWfUFAERchtTUdUBj9oS4jvactGSossn1n3TvaNV5QQoJF493Fz6yyMK0JAuLtkHRCCit/VPz4ISQv/OKZEJIQEn/Xiu26KAmJz/Njeo06jSuEWwuf6vv0nIeY9iLyaqzdq+PioDi6j3J4mnzXcRFSc+N+y9QccmxMP7FkONJx3JLro7VvLTPvQo6Q+g4O20aRsEjkdU86IYWVPyp+eHq+hsTbDtdu+MUzISQhJBMvxfS/KAnJPKEU6z7otMHOMU0mpMjdOvPx8pc6Lu25wXQKpsmIkJrq9tkUsVtedD9OQjqwr1vLUV/TqJYzN63/K6dvWzL5ISSQ16OlV56/E/3TVn7cKAAKHaNLugdrLz51mAZCCiN/VPz4JSQ3/AJHnJCC9B9hUEIhtCRjoCgJCRZuRBoI8YKjE8b7zur7tOHUrXOwdkR5kMmxOZWHDZ9u6Z3ux0lIWLuitTJMHT5b/caSl/br+CEkqp9XeHbogiMhoX58PW1q6KJuizQQUhj5o+LHLyG54Rcyc0Ly6jd6Rv3nhEe5J+SUNAwUJSGVlJQqrG3QS0nGC5PHFvW9Cyc/1ArUqVMwpUfpseaAOO17O/U9TOk5pfO6FychoRxzYy5IiUjSDyFhf897jxDwCuH8w3oUyqLRENoEIyTcwyI/7SOCsQi5TUoLIQWVPyp+/BKSG37R5pyQgvQf0spP2iDpGIiFkGpqalRPT49CGKbCftP7faExRUdkghCL0ZCLGzu47aEh+W8zQuo7eNxKv7e+xZavXzdFlGfchISpRF5PcvOD8vwQUpB9LE6EZLZpZnDOaqe0EFJQ+aPiJyp+IS8npCD9h7TykzZIOgZiISSQUSaTsUgpTIX9pvf7QsPMmStq8uXGzbmxidZLVpoOQz40woK1Hc+3nrnk8cqLnsVNSPiSvn/hpZaJRi4ob6sICW1L3jKeXHpj7ftKEyEFkT8qfqLiF/0qhCSkQvqkGMNYCMnvCMetAf2m9/tCw6UNEQeUJZVLG0fxDJtL6b5TCLNwygMjI4pDU1R41ranQ9+n514hjA8oT7++7LBwjTxpjxHSw8qOyoHZ9/rke4ezmIKi+1tFSCiPT2VBYaaJkILIHxU/UfELWYWQhJDoHS/GMBZC2qqG8ftCw3sCKX7uS44TFazoMMJwkh1fzZQeYXVlrY4HV0D0zHTd45QXvwcXR5SWEyWPg2v4qKN4RFxuhGSmpf9bSUhw/0NGFVjXgPcGkh8hnKuSXGa4Ha6D+EgS8viVPyp+ouIXsgohCSGZ71Ax/S9KQiLXOlCGc2OXtTLkyg/Pmhva9DPeqbCqI4UKQuDeGGZGVvQzHDnB0+W7hsEB5QtTabf4UOAUDwoe8ZJMSJCPt8vU8SUtP+qRdELyK39U/PglJDf8Qs44Cam8tET1t1TYfk3VZa64RPnykzYoJAaKjpC62rLHL2C6C9NHvAG5l244UuXP6BrnGxEh4JruI4TpN98029p0wPacx3W6xjoL5e3kuBVp+B4jeCDHvaQTEtbteLtQHdNCSH7lj4IfP4SUD79xEtKemjL160ar7XexL9hWBieMyz0hrbAYKBpCwqbVU4PzNqVokgkaaeDQiCYETNuBYHjjwXKNpp+gTNuacteJ+BEPMH5wcjCKPA+19CrzCAus95CyxjM++kIaWO7hrCOKg4PlcD/phAQZFyauarlJfoRpGCH5lT8KfrwIyS9+hZBE2QOrxfpLLSHBuADTRPBQcGv+ExuJQAneXnhhrQ2YHQeTcG6YgA2wGClBWcArAfmIQx786AieDzw08GMeMOrBNBXc9xxsOWz5lyOP4XwNC3nADx339gDPCkc7x63jM7AmBQ8SpMyfXnqrPSAUgpDuLX5unS6LE2a9fhg9uJl983aB8QevG9UjLYTkR/4o+OGEFBa/nJCC9B/vJ7qWEVLxKnbq47SFqSUkUnZmiA2xsPrC2UBunYG1I6zNmGn5fxAJ1gzc8oAJN4iQp3G6NgkJ+Z0z1lic0uEeN5ooBCG5lWvex2K+H0JC3ciFEc8jLYTkV/6w+OGExNuHX+fDLyckns7rGv3nhOP2+nLbdB2m7xZ6ZcrOqa3k3taQd6oICaMP88XDSAUevTFdhBFOS2O748tnAgprSxvnHisYF/A8N1feKWyapb1LZjr+H2bWOJkWx1DwPOj62sxT1f9PrwY8Ha5hQkwesyk+hXC8Sf7zKB2OeaDnblOEFBchjqCg+JwQuLsfep4vxKiO73c60jHk2saY4jTz8yJ2blHoZejB6xbmOm75w+AnDvyG7T+nNpvurrIR0i/rLaqhSowanNpK7gkhuSq9OMGBkRS+IPsPjVj7e8pKw72Qu6vqVGdrn5UPvDVzEnCTF+tH2JsERQUfdEjnpbzd8pH7W/OyOLVzXPhxyrvQ9zYz9TZCujK0e0veuULXS/LfvvchatunaoQUtbKSPr1Alb6Lt+9KS0rUjyvNmpB+XmtRtZXhPsakb+Ltm53cnkJIRWyxUizAxoZinPIa5bcwfkW+/hnWzfWj1UEZHRXL+5LmegghsZc0zR1ZzLKb5wOZa1R+/uNgxWJuo6B1mz1crUdHP622qOoKZ68lQfOV+DJaioIBISQhpMQrapid4+TfKD83E/4oL0+a0w63V6hbY7Xq5mitmujI+kBMc51E9vSToRCSEFLiCUkUTfoVjfSh9KEfDAghCSEJIQkGBAOCgURgQAhJgJgIIPr5epI48pUtGChuDAghCSEJIQkGBAOCgURgQAhJgJgIIMqXb3F/+Ur/Sv/6wYAQkhCSEJJgQDAgGEgEBoSQBIiJAKKfryeJI1/ZgoHixoAQkkVIpaq6MvpOdZxpE0c+8tIV90tXqP4F9sL6YiyUTJKvHyzHo3+Koa1TRUgtjfstL9bwZE2/pZM31OmjC2qgc9RykooD7vx0DMhjom9K4dwiOh8Jh+0tZW6qoe6TvvJAOT3tAwoHAeI4c/IcDo/hN+c+VicHZmxOVuGAlcvtJmflriq1duauFRfyId7w4Yx1SB+OocCvq63fUUbUC2cbUTyE3HM5jmcnGfyEy6duWeXgoECep+mNnNcFipHHxdHtcF7rpzy3OB3N3Y715eX6vYY3d7dynO7D6S3yxgZdp+e4h/rigEjgEPX1K8tg55gtTzja9Zu2pqrWwhj6iI4Hwam9d86/UHNjl9Weumadl+AnGn6i4t/s0zD6Jw79F/b9N+Uv1P9UEZKf82TuLb60Tmr1ajAcsga/aF4uZ2ZH13JOc+V54kv03PCyZx7In5+HhDOUqEwcm8Hz49dQNBQPIZ5B4fF7OFWWp6FreBzn8XANRUrPg56n82z1nZWWFB7lfXnygc6T8qYQRzNQPITwfH5qcM52jz/3cw1v6JR/1JA+HPyUizh0hEhrU7uvOuADB4c+mqcBO8nND2REWThGxSmeeQ+y8CM1nOqCwxJBREgr+ImGn6j45/0XVv/Eof/Cvv9c/kJep5aQ6Etwc+Wto5LAOUXlZU6H9JWqq1OPdBooJyhXkMvG9FPbiafm8ePUETgH6fLZBzoPKAN8leJo86njF60jyOlE2UIREg5yw1lCJBOF/Hh1UlJuhIS646BCrx9O1EXe5guJvN0OfnMiJChop3JodEqyOsXBPXzZUR2jhpyQUL5bmXQfZ1ehTJOQ7iy8UPjh5FaeJ9VlvG/KU2Y4ayXb8gAAEVdJREFUjTVP2IU8+abdeg8cU/hQoHI2V7628Dg1dFEtnrim7pz/jX52duiCJYNJSIIfP1Np2ThR8Z/FbHj9wwkprP7jhBTk/c/Kn22TQtxLLSHhEDtqELzYmNLhRIOXFYeZURwKMf1CLzKUASkbeg7FqZ+vfadqaxpy8oCi4XGcpviqKmoskuM+1OIcIaF8fqIs5MfZPESEJB9CN0KaG13PqRu1gxk6vZCY+jLj4b8TITnFwz2c/0Syoj/c4sV5n5OHn3OrqGxOSBid0H2EGA0d2Netbsw91/X5aO1b5XWY4rGuCR2X2gAh8uF582t8DD1e/lKnA76cPkyAa/j+cyMklCP48a9c48J/FP3DCSms/uOEFOT95xgs5HVREBI1EJQCnxp6vPRaYT2GniOcH7+iX+bp4WXbM4qHdRtSEBP952xxMNzGi07PoVQonVMIBUL34yIkUnpXzj7UeaMMKCHIha8njMxIxkIREvJ3Urg7kZCoj0GwfNTn9FFEcUHo1Ec47ZiuMdKhOGY4xj6Ybs1/4rlehalfWuvjIyTBj38iovZ3IqQw+I+if9wIiWT0o/+EkGI0q87XIegYLBbCOIFebhgWUIeBHDC9Qc86mnv0M4qDcKj7hI5DU1b0nB8hjaPL/awTUNq4CIlGaBhR1FZnR3CkdLDIfnnyvq5D3ITE199wtDrVj8KdTEhoAxiVEMbcpn3xYUPTbhhtwRACHxJIZ2KO2hUGO4+Wsth2GplTXDMkbCB/wU80QgqL/6j6J6r+AyaEkLaYkNDoICFSCNdmNrXChJUK3YcycF5jKlENxqI8H2VdPfdY5wHrPvPF9/ofFyG1NR1QGP2hLiO9py0ZKiyyfb+ucLRrvKCEBEuyu4ufWeVjLQIExOu90wkJ02SEMygv3jZ0DetMigMDGtznU85761ty0sECj9IAv0Gs+TghCX6iEVJY/EfVP34ICThy0394JoS0DYTE52kxvUZKgHforYVP9X16zkP6WoUCaKzdq+PioDdSCmQOzNN5XcdFSM2N+y1Tc8gBKy2UeaTjuCUX1i1g5l3IEVLfwWHbKJIUKtV9pxMSzLAJIzMjKxo71D4IYXRDcchgA9PDdA9bEnh8XPM1Jy8rRzMd/nNCEvxEI6Sw+I+qf3h6voZk9reb/kM8IaRtICTzhFFMj6AzsOeDXnhS5GZn0n++cEzz8JgO5FZRTXX7cpQGpXcK4yQkLHxTXeprGtVy5qb1f+X0bUsmP4QE8sIUkNcPaxuoC59DxwuJ0SXdg5EAnzpMEyFhzxgMQdx+MHKhvvQyaqA4bXs6FEaN1Dd9B4/r9BQH07y0DokPHxrptDYd0Omc8Il9TpQvpgUpPz+hSUiCn2CkRFhH+4fFf1T945eQ3PQfcMIJKcj77wdjccQpKqMGahBYuNGLixAdhGfjfWf1fdpwSmnMEPP4lAd9wZpTeaRIzLRu/+MkJCg1WivD1OGz1W8seWm/jh9Covp5hWSlZb6QqCNfT+ML8WkiJK+64xlfg+SEBMOFtqYO6wfzd5hiow1oXQhpQSpOa4z4wKFyN8491sSCuDQViw8fbKTmWMIeJUrH25vHcbs2CUnwE42QwuA/qv7xS0hu+g8yc0IiLHmF9P674Sru+0VJSCUlpbavVDJemDy2qF/oCyc/tL3sZsNiSo86CnPGeN6+t1Pfw5etmSbf/zgJCWWZG3NBSkSSfggJ+2zee4SAVwjnH9ajUJYTIWGRlizKYCxCbpPSREiY+oK1m9uvt+OY7mdOSIQNpxBkgv1obl5Dzhw7r3FEI1DCDoxEKE/TghOy0rOJPrv1J9JjBIU1U/PX3NCWM2Un+IlOSEHxH1X/+CUkN/2HPueEFOT9J3wWOoyFkGpqalRPT49CGEZgv+n9dgim6OjFRYjFRMjFF/vc9tCQ/LcZIdG0Cxaaeb5uCofyMMO4CYl/aUMucvODcv0QUpB9CE6EhHJ4m2YG56x2ThMhhd2HxHFgXkPxeG1u5djCKIvjBCNcys/EKNxk0bPTR+dt6ZAHPrLoOQ+xpmCOkBBf8OOflOLAP39XzL7lGMA1xwjpn6j6D/lyQgry/pvyFep/LIQEMspkMhYphRHUb3q/HQIzZ/5Cki83bs4NiyYvWWk6DPnQCAvWdjzfeuaSxysvehY3IeFLiLuPwdw2lbVVhIS2JW8ZTy69sfZ97QRCwprTwKER64d1JrQ333AL8qC+4CHHAEaX5pQeNnkTxjD9R+ufyAPTdPTMSZm8HyE9Vddmnuo+QXw3QhL8RCekIPiPqn+i6j9gaEcQkt8RDn8x+bXf9H47BHP69OJCWVJZtHEUz7A5kO47hXwtgJvg0hQV8sACtlNat3swPiC5oNDc4nFfdlh4RDynL1zch9n3+uR7Z7OYQqA8t4qQUB6figDgdwIhmZ4a0A4wSuD73EBY1B8U8nU3YIHcD/GQMIIQ5uGUdvjwKY2ffF/YeE75uBOS4IfaNl/oNkJCOr/4j6p/ouo/yLojCClfZ8b13G+HcPNY7kuOExWs6PCF6CQbvnroZUZYXVmr48FVCz0zXa845cXv8a9fTpQ8Dq7hCobKIOJyIyQzLf3fSkKCdwIyqsC8NLw3kPwIvabFisV1ELU7PhCo7nD0a+5143uNKJ5XCPNwypsrNOTthl/E90tIlLcZCn7soycvQvKL/6j6J6r+Qx8LIW2D2Te5RsGLDjf89LJx5YdnWOylZzyEVR0pCRACn1bBvhJ6hiMneLp81zA4oLSY3nGLDwVO8aDgES/JhAT5eLtMHV/S8qMeO4mQsDWAW2jSxmW0EYw+yCQcRjEXT95w/HHXVTDJJ/yhHTFiJmx4HcmRJkJKA368CMmv/FH1j19CctN/kDNOQiovLVH9LRW2X1N1mateQ/n5frGsIeUrJK7nfjqkqy17/AJeXkwf8fK5l26+x4THwflG9NLjmj+D6TffNItpGv483zXWWShvJ8etSM/3iMADOe4lnZCwbsfbheqIcCcREvoKlolUfygyOL3FfW6wAI8fuOf0AwE57YNDXO4LzWsvUtoIKen4yUdIfuWPon/i0H9xEtKemjL160ar7Xexz/9ZYE7YLxpCwpcpFnW5UjTJBA2AeX1SFnjpQTC8YWB5RNNPiGdaQSEuP+IBxg9ODkYR71BLrzJ9mWG9h8rHM/r6JRlguYezjigODgbDs6QTktUubJ8MyY9wpxESsMg9emDtB+2DERG1i2nuTf1PITf/hpk43cdmbBplIS+ybKTnFKaNkCA332dF7ZQU/OQjJL/yR9E/XoTkV/8JIbl8BdKLEyTkHQLjAkwTwUMBvB5zEgGIby+8sI42MPOH1RI3TMD0CkZKyBtKgjYmIg9+dATPB0oBU3n00mDUg2kquO+BvzFM09C0C1/DQh7wI8a9PcCzwtHOcev4DKxJYTMl5fv00lvtAaEQhIRzfPCVne+Hrz8/LySMP3jdqB47jZDQz3wtCW1XuavaZvnm9KHDMcZHU6abq9nR7AgebQwMgfRgvNC9v9+apuak5WXUwMvk137WkHYSfuLCfxT9E4f+44QUpP84NuhaRkitR7SyJmVnhngRYfVC0yTUeDzE2hHWZsy0/D+IBHO+PB2/hvkuiJCncbo2CQl5nDPWWJzS4R43migEIbmVa97HYqyfFxJ1IxdGPI+dSEhwdss/fPgaG+6bI2OOLVzDsIWTO/CWjVNq7f/iz3l782t4goAxjeDHeXo026bez+PEf1j9wwmJ9zG/zqf/OCHxdF7XeP+d2qm9vtw2XYfpu4XeHTRlx70dUwNipIKd6RjuY4TT0tju2Hhmg2JtCS8r3zuCPOHbDNMdtHfJTMf/w8waVlA4hoLk4SH2g9Dx1zwdrmExRR6zeRpcw3Eipg55Gj6F4zZFyOPjCArKlxOCaXZMcbxCjOr4fqcjHUM22Xi5+PI38/Iidm5R6GXowcuIeo0+Jhm5D758+UKRUDp8XeaLnxmY1fH5iBrkkC8tngMHVJ7TURMwCb8+u5mDYaSBAsW+FyI+wY834eTrj7jxH0b/xKH/wr7/Tu0z3V1lI6Rf1ltUQ9UOMmpwapSo9zCSwhdA/6ERBS/IXjvsvcqC37HO1j4rH0yRcBJwSwdlgb1JABqmaJDOS3m75SP3oymbtLcf1g/g1gjrE9jEjX1saa/TTpE/Lv2zHe21mam3EdKVod2RcZcqo4btaHQpc2cre+l/6X/BQC4GSktK1I8rzZqQfl5rUbWV0UZHaGchpBiNLgS4ucCNo02wBoKD7qL8FsavRP56i6MukkdhMOLVroKf+NvcXD9aHYw+OkIfCiEJISVeUZvnu9C6SpAQZtheSkuexa+0ktKmgp/4+3b2cLUeHf202qKqK5y93gTFgBCSEFLiFTXMznGgXZSfmwl/0BdG4sev3ArdpoKf+PtsuL1C3RqrVTdHa9VER9aHZtS+FEISQko8IUUFuaSPXyFJm0qbFgIDQkhCSEJIggHBgGAgERgQQhIgJgKIhfjakjzlK14wkC4MCCEJIQkhCQYEA4KBRGBACEmAmAggypdsur5kpb+kvwqBgcCEVF6+S3X19Kn2jk5VW9+gXZMUQjjJU0AvGBAMCAZ2DgYCE1Lr/gPqD//4P/37/d//Rz3+5LXq6jkiX9oy2hIMCAYEA4KB0BgITEgtbe2ajDgxvfvTv6ua3XWhBZGvoJ3zFSR9LX0tGBAMOGEgMCEhk4rKKlXf2KSODAypz9/+URPUufklIST5OhIMCAYEA4KBUBgIRUic2Y6PZTQhXf7wfigheH5yLV9OggHBgGBgZ2IgMiHBuIGm7u5t5j8jRoC2M4Em/S79LhgQDOTDQGRC2rOvRRPS40+/lBGSDNUFA4IBwYBgIBQGPmhqagqVkJhOCEm+eggLEgoWBAOCgSgY+ODYsWOqtbU1NCkJIQkAowBQ0gp+BAOCAcLAB0ePHlUgpY6OjlCbXDkhbX72dWhiI4EkFHAKBgQDgoGdiYEP6urq1ODgoEVKXV1dqqws2DG0VdU1eg3py9/+KIQkc8eCAcGAYEAwEAoDllFDdXW16u/vt0gJo6WgXyfYFEuWdp3d4rEhaPtJ/J35NSj9Lv0uGLBjQFvZVVRUhCak85euakL66nc/qZGJ02pvc6u1gXbXrorABCedZO8kaQ9pD8GAYGAnYEATEiqL0VGYERIcrp6ZXlC/+eoH9cNP/6vJCaOml+/+JIQkw3fBgGBAMCAYyIuBWAgJZAbnqtfvPFXf/fW/bIT0xTd/ySvETmB+qaN84QoGBAOCAW8MxEJIIxOnbCR088FzhXs4pmL/gUNCSPJlJBgQDAgGBAN5MWDtQyLWDjtlh1EQGTUsrmzkLZTKk9D7a0HaR9pHMCAY2EkYiExIlVXVmoy+/9t/W4YMO6kBpa6iMAQDggHBQDwYiDxlxzfGfvLqexkdybBcMCAYEAwIBkJhIFZCEueq8XwlyNeWtKNgQDCwEzEghCRfMqG+ZHbiyyJ1FpIQDBQWA5EJiR9p/viT16LchOAEA4IBwYBgIBQGIhNST++ANmq48+Q3oYSQr47CfnVI+0r7CgYEA2nAQDRCKi1VV28+1IR0YfWaEJJ8GQkGBAOCAcFAKAxYZt+0/4hCLyatrW9QG7efKIyGXr77syYj7EM60h/cMatXWfJMvuoEA4IBwcDOwUBgQmrdf8BGQiAi+K9bv34vFCMK2HYO2KSvpa8FA4IBLwzYpuy8ItKzuoZGBddAG7ceK0zRTc4sWp696bmEAjjBgGBAMCAYCIOBwIQUphBJI+AUDAgGBAOCgXwYEEKSxUeZahUMCAYEA4nAgBCSADERQMz35STP5etaMFD8GBBCEkISQhIMCAYEA4nAgBCSADERQJSv3+L/+pU+lj7OhwEhJCEkISTBgGBAMJAIDAghCRATAcR8X07yXL6uBQPFj4H/D0gp+UZ65GQtAAAAAElFTkSuQmCC;" vertex="1" parent="1">
          <mxGeometry x="-170" y="905" width="165.97" height="98" as="geometry" />
        </mxCell>
      </root>
    </mxGraphModel>
  </diagram>
</mxfile>
